<?xml version="1.0" encoding="UTF-8"?>
<!-- Generator: Adobe Illustrator 17.0.0, SVG Export Plug-In . SVG Version: 6.00 Build 0)  -->
<!DOCTYPE svg PUBLIC "-//W3C//DTD SVG 1.1//EN" "http://www.w3.org/Graphics/SVG/1.1/DTD/svg11.dtd">
<svg version="1.1" id="Color_Fill_1_1_" xmlns="http://www.w3.org/2000/svg" xmlns:xlink="http://www.w3.org/1999/xlink" x="0px" y="0px" width="146px" height="40px" viewBox="0 0 146 40" enable-background="new 0 0 146 40" xml:space="preserve">
<g id="Color_Fill_1">
	<g>
		<path fill-rule="evenodd" clip-rule="evenodd" fill="#69BF13" d="M116.304,27.016h1.87l0.024-1.549h-1.926L116.304,27.016z     M113.062,25.467l0.126,1.549h1.87l-0.07-1.549H113.062z M116.201,22.072h2.049l0.029-1.866h-2.117L116.201,22.072z     M116.141,19.227h2.152l0.032-2.062h-2.227L116.141,19.227z M114.875,22.961h-2.017l0.138,1.696h1.955L114.875,22.961z     M116.255,24.657h1.955l0.026-1.696h-2.017L116.255,24.657z M110.902,17.165h-2.227l0.292,2.062h2.152L110.902,17.165z     M119.42,27.016h2.181l0.127-1.549h-2.247L119.42,27.016z M114.75,20.206h-2.117l0.152,1.866h2.049L114.75,20.206z     M111.223,20.206h-2.117l0.264,1.866h2.049L111.223,20.206z M109.852,25.467l0.22,1.549h1.87l-0.163-1.549H109.852z     M111.513,22.961h-2.017l0.24,1.696h1.955L111.513,22.961z M114.614,17.165h-2.227l0.168,2.062h2.152L114.614,17.165z     M125.631,22.961h-2.353l-0.18,1.696h2.281L125.631,22.961z M126.49,17.165h-2.598l-0.219,2.062h2.511L126.49,17.165z     M126.039,20.206h-2.47l-0.198,1.866h2.39L126.039,20.206z M125.259,25.467h-2.247l-0.164,1.549h2.181L125.259,25.467z     M119.513,24.657h2.281l0.139-1.696h-2.353L119.513,24.657z M119.728,19.227h2.511l0.169-2.062h-2.598L119.728,19.227z M0.5,0v40    h145V0H0.5z M129.468,28h-20.786l-2.177-12.666h11.025V9h3.152v6.335h11.813L129.468,28z M128.145,27.016l0.323-1.549h-1.926    l-0.267,1.549H128.145z M130.202,17.165h-2.227l-0.356,2.062h2.152L130.202,17.165z M119.615,22.072h2.39l0.153-1.866h-2.469    L119.615,22.072z M129.567,20.206h-2.117l-0.322,1.866h2.049L129.567,20.206z M128.992,22.961h-2.017l-0.292,1.696h1.955    L128.992,22.961z"/>
	</g>
</g>
</svg>