<?xml version="1.0" encoding="utf-8"?>
<!-- Generator: Adobe Illustrator 17.0.0, SVG Export Plug-In . SVG Version: 6.00 Build 0)  -->
<!DOCTYPE svg PUBLIC "-//W3C//DTD SVG 1.1//EN" "http://www.w3.org/Graphics/SVG/1.1/DTD/svg11.dtd">
<svg version="1.1" id="Color_Fill_1_1_" xmlns="http://www.w3.org/2000/svg" xmlns:xlink="http://www.w3.org/1999/xlink" x="0px"
	 y="0px" width="57px" height="39px" viewBox="0 0 57 39" enable-background="new 0 0 57 39" xml:space="preserve">
<g id="Color_Fill_1">
	<g>
		<path fill-rule="evenodd" clip-rule="evenodd" fill="#69BF13" d="M44.406,1.219l-1.181,4.387H0.5l6.588,19.737h30.822l-0.886,3.29
			c-2.13,0.041-3.929,1.349-4.648,3.18H14.749c-0.73-1.86-2.573-3.188-4.749-3.188c-2.813,0-5.094,2.211-5.094,4.938
			C4.906,36.29,7.187,38.5,10,38.5c2.246,0,4.131-1.419,4.809-3.375h17.508c0.677,1.956,2.562,3.375,4.809,3.375
			c2.813,0,5.094-2.211,5.094-4.938c0-1.613-0.81-3.031-2.043-3.932L47,4.5h9.5V1.219H44.406z M10.109,35.75
			c-1.217,0-2.203-0.979-2.203-2.188c0-1.208,0.986-2.187,2.203-2.187c1.217,0,2.203,0.979,2.203,2.187
			C12.313,34.771,11.326,35.75,10.109,35.75z M6.497,11.718L5.44,8.895h3.155l0.684,2.823H6.497z M7.137,14.09h2.717l0.786,3.247
			H8.013L7.137,14.09z M9.284,22.053l-0.737-2.734h2.573l0.662,2.734H9.284z M12.853,8.895h4.258l0.293,2.823h-4.063L12.853,8.895z
			 M13.752,14.09h3.898l0.337,3.247h-3.674L13.752,14.09z M15.129,22.053l-0.473-2.734h3.537l0.284,2.734H15.129z M25.172,22.053
			h-3.347l-0.095-2.734h3.537L25.172,22.053z M25.335,17.337h-3.674l-0.112-3.247h3.898L25.335,17.337z M25.529,11.718h-4.063
			l-0.098-2.823h4.258L25.529,11.718z M31.866,22.053h-3.347l0.284-2.734h3.537L31.866,22.053z M32.682,17.337h-3.674l0.337-3.247
			h3.898L32.682,17.337z M33.654,11.718h-4.063l0.293-2.823h4.258L33.654,11.718z M35.214,22.053l0.662-2.734h3.243l-0.737,2.734
			H35.214z M37.174,35.759c-1.213,0-2.196-0.982-2.196-2.193s0.983-2.193,2.196-2.193c1.213,0,2.196,0.982,2.196,2.193
			S38.386,35.759,37.174,35.759z M39.653,17.337h-3.297l0.786-3.247h3.386L39.653,17.337z M41.168,11.718h-3.452L38.4,8.895h3.825
			L41.168,11.718z"/>
	</g>
</g>
</svg>
