<?xml version="1.0" encoding="utf-8"?>
<!-- Generator: Adobe Illustrator 17.0.0, SVG Export Plug-In . SVG Version: 6.00 Build 0)  -->
<!DOCTYPE svg PUBLIC "-//W3C//DTD SVG 1.1//EN" "http://www.w3.org/Graphics/SVG/1.1/DTD/svg11.dtd">
<svg version="1.1" id="Color_Fill_1_1_" xmlns="http://www.w3.org/2000/svg" xmlns:xlink="http://www.w3.org/1999/xlink" x="0px"
	 y="0px" width="27px" height="19px" viewBox="0 0 27 19" enable-background="new 0 0 27 19" xml:space="preserve">
<g id="Color_Fill_1">
	<g>
		<path fill-rule="evenodd" clip-rule="evenodd" fill="#69BF13" d="M14.682,6.334V0H11.53v6.334H0.505L2.683,19h20.786l3.026-12.666
			H14.682z M2.676,8.165h2.227l0.217,2.062H2.968L2.676,8.165z M3.107,11.207h2.117l0.197,1.866H3.371L3.107,11.207z M3.497,13.961
			h2.017l0.179,1.696H3.737L3.497,13.961z M4.072,18.016l-0.22-1.549h1.926l0.163,1.549H4.072z M6.387,8.165h2.227l0.093,2.062
			H6.555L6.387,8.165z M6.634,11.207h2.117l0.084,1.866H6.786L6.634,11.207z M6.858,13.961h2.017l0.076,1.696H6.996L6.858,13.961z
			 M7.188,18.016l-0.126-1.549h1.926l0.07,1.549H7.188z M12.174,18.016h-1.87l-0.032-1.549h1.926L12.174,18.016z M12.21,15.657
			h-1.955l-0.035-1.696h2.017L12.21,15.657z M12.25,13.072h-2.049l-0.039-1.866h2.117L12.25,13.072z M12.294,10.227h-2.152
			l-0.043-2.062h2.227L12.294,10.227z M15.602,18.016H13.42l0.061-1.549h2.247L15.602,18.016z M15.795,15.657h-2.281l0.067-1.696
			h2.353L15.795,15.657z M16.006,13.072h-2.39l0.074-1.866h2.469L16.006,13.072z M16.239,10.227h-2.511l0.082-2.062h2.598
			L16.239,10.227z M19.029,18.016h-2.181l0.164-1.549h2.247L19.029,18.016z M19.379,15.657h-2.281l0.18-1.696h2.353L19.379,15.657z
			 M19.763,13.072h-2.39l0.198-1.866h2.469L19.763,13.072z M17.674,10.227l0.219-2.062h2.598l-0.306,2.062H17.674z M22.146,18.016
			h-1.87l0.267-1.549h1.926L22.146,18.016z M22.638,15.657h-1.955l0.293-1.696h2.017L22.638,15.657z M23.178,13.072h-2.049
			l0.322-1.866h2.117L23.178,13.072z M21.619,10.227l0.356-2.062h2.227l-0.43,2.062H21.619z"/>
	</g>
</g>
</svg>
